<svg width="744" height="100" xmlns="http://www.w3.org/2000/svg">
  <rect x="2" y="58" width="12" height="12" rx="2" fill="rgb(34 86 39)" />
  <rect x="2" y="72" width="12" height="12" rx="2" fill="rgb(33 84 39)" />
  <rect x="2" y="86" width="12" height="12" rx="2" fill="rgb(28 71 34)" />
  <rect x="16" y="2" width="12" height="12" rx="2" fill="rgb(30 68 38)" />
  <rect x="16" y="16" width="12" height="12" rx="2" fill="rgb(29 69 36)" />
  <rect x="16" y="30" width="12" height="12" rx="2" fill="rgb(33 65 43)" />
  <rect x="16" y="44" width="12" height="12" rx="2" fill="rgb(30 77 36)" />
  <rect x="16" y="58" width="12" height="12" rx="2" fill="rgb(34 86 39)" />
  <rect x="16" y="72" width="12" height="12" rx="2" fill="rgb(33 83 38)" />
  <rect x="16" y="86" width="12" height="12" rx="2" fill="rgb(32 82 38)" />
  <rect x="30" y="2" width="12" height="12" rx="2" fill="rgb(29 75 35)" />
  <rect x="30" y="16" width="12" height="12" rx="2" fill="rgb(33 83 38)" />
  <rect x="30" y="30" width="12" height="12" rx="2" fill="rgb(37 93 42)" />
  <rect x="30" y="44" width="12" height="12" rx="2" fill="rgb(34 86 39)" />
  <rect x="30" y="58" width="12" height="12" rx="2" fill="rgb(32 83 38)" />
  <rect x="30" y="72" width="12" height="12" rx="2" fill="rgb(34 86 40)" />
  <rect x="30" y="86" width="12" height="12" rx="2" fill="rgb(35 89 41)" />
  <rect x="44" y="2" width="12" height="12" rx="2" fill="rgb(34 85 39)" />
  <rect x="44" y="16" width="12" height="12" rx="2" fill="rgb(32 83 38)" />
  <rect x="44" y="30" width="12" height="12" rx="2" fill="rgb(30 78 36)" />
  <rect x="44" y="44" width="12" height="12" rx="2" fill="rgb(30 77 35)" />
  <rect x="44" y="58" width="12" height="12" rx="2" fill="rgb(29 76 35)" />
  <rect x="44" y="72" width="12" height="12" rx="2" fill="rgb(31 80 37)" />
  <rect x="44" y="86" width="12" height="12" rx="2" fill="rgb(30 78 36)" />
  <rect x="58" y="2" width="12" height="12" rx="2" fill="rgb(28 74 34)" />
  <rect x="58" y="16" width="12" height="12" rx="2" fill="rgb(32 82 38)" />
  <rect x="58" y="30" width="12" height="12" rx="2" fill="rgb(30 77 36)" />
  <rect x="58" y="44" width="12" height="12" rx="2" fill="rgb(32 83 38)" />
  <rect x="58" y="58" width="12" height="12" rx="2" fill="rgb(37 93 43)" />
  <rect x="58" y="72" width="12" height="12" rx="2" fill="rgb(35 89 41)" />
  <rect x="58" y="86" width="12" height="12" rx="2" fill="rgb(31 80 37)" />
  <rect x="72" y="2" width="12" height="12" rx="2" fill="rgb(34 87 40)" />
  <rect x="72" y="16" width="12" height="12" rx="2" fill="rgb(36 92 42)" />
  <rect x="72" y="30" width="12" height="12" rx="2" fill="rgb(39 97 44)" />
  <rect x="72" y="44" width="12" height="12" rx="2" fill="rgb(37 92 42)" />
  <rect x="72" y="58" width="12" height="12" rx="2" fill="rgb(38 95 43)" />
  <rect x="72" y="72" width="12" height="12" rx="2" fill="rgb(40 99 45)" />
  <rect x="72" y="86" width="12" height="12" rx="2" fill="rgb(34 86 40)" />
  <rect x="86" y="2" width="12" height="12" rx="2" fill="rgb(32 83 38)" />
  <rect x="86" y="16" width="12" height="12" rx="2" fill="rgb(32 82 38)" />
  <rect x="86" y="30" width="12" height="12" rx="2" fill="rgb(30 77 36)" />
  <rect x="86" y="44" width="12" height="12" rx="2" fill="rgb(28 74 34)" />
  <rect x="86" y="58" width="12" height="12" rx="2" fill="rgb(29 75 35)" />
  <rect x="86" y="72" width="12" height="12" rx="2" fill="rgb(31 79 37)" />
  <rect x="86" y="86" width="12" height="12" rx="2" fill="rgb(30 78 36)" />
  <rect x="100" y="2" width="12" height="12" rx="2" fill="rgb(30 78 36)" />
  <rect x="100" y="16" width="12" height="12" rx="2" fill="rgb(28 74 34)" />
  <rect x="100" y="30" width="12" height="12" rx="2" fill="rgb(28 74 34)" />
  <rect x="100" y="44" width="12" height="12" rx="2" fill="rgb(28 73 34)" />
  <rect x="100" y="58" width="12" height="12" rx="2" fill="rgb(28 73 34)" />
  <rect x="100" y="72" width="12" height="12" rx="2" fill="rgb(29 75 35)" />
  <rect x="100" y="86" width="12" height="12" rx="2" fill="rgb(30 78 36)" />
  <rect x="114" y="2" width="12" height="12" rx="2" fill="rgb(36 92 42)" />
  <rect x="114" y="16" width="12" height="12" rx="2" fill="rgb(37 93 43)" />
  <rect x="114" y="30" width="12" height="12" rx="2" fill="rgb(33 83 38)" />
  <rect x="114" y="44" width="12" height="12" rx="2" fill="rgb(31 80 37)" />
  <rect x="114" y="58" width="12" height="12" rx="2" fill="rgb(30 77 36)" />
  <rect x="114" y="72" width="12" height="12" rx="2" fill="rgb(29 75 35)" />
  <rect x="114" y="86" width="12" height="12" rx="2" fill="rgb(30 79 36)" />
  <rect x="128" y="2" width="12" height="12" rx="2" fill="rgb(30 77 36)" />
  <rect x="128" y="16" width="12" height="12" rx="2" fill="rgb(30 77 35)" />
  <rect x="128" y="30" width="12" height="12" rx="2" fill="rgb(29 75 35)" />
  <rect x="128" y="44" width="12" height="12" rx="2" fill="rgb(29 75 35)" />
  <rect x="128" y="58" width="12" height="12" rx="2" fill="rgb(28 74 34)" />
  <rect x="128" y="72" width="12" height="12" rx="2" fill="rgb(29 76 35)" />
  <rect x="128" y="86" width="12" height="12" rx="2" fill="rgb(29 76 35)" />
  <rect x="142" y="2" width="12" height="12" rx="2" fill="rgb(28 72 34)" />
  <rect x="142" y="16" width="12" height="12" rx="2" fill="rgb(28 73 34)" />
  <rect x="142" y="30" width="12" height="12" rx="2" fill="rgb(28 74 34)" />
  <rect x="142" y="44" width="12" height="12" rx="2" fill="rgb(28 72 34)" />
  <rect x="142" y="58" width="12" height="12" rx="2" fill="rgb(28 74 34)" />
  <rect x="142" y="72" width="12" height="12" rx="2" fill="rgb(29 75 35)" />
  <rect x="142" y="86" width="12" height="12" rx="2" fill="rgb(29 74 34)" />
  <rect x="156" y="2" width="12" height="12" rx="2" fill="rgb(28 73 34)" />
  <rect x="156" y="16" width="12" height="12" rx="2" fill="rgb(29 74 34)" />
  <rect x="156" y="30" width="12" height="12" rx="2" fill="rgb(28 73 34)" />
  <rect x="156" y="44" width="12" height="12" rx="2" fill="rgb(27 71 33)" />
  <rect x="156" y="58" width="12" height="12" rx="2" fill="rgb(27 71 33)" />
  <rect x="156" y="72" width="12" height="12" rx="2" fill="rgb(27 72 33)" />
  <rect x="156" y="86" width="12" height="12" rx="2" fill="rgb(28 74 34)" />
  <rect x="170" y="2" width="12" height="12" rx="2" fill="rgb(29 75 35)" />
  <rect x="170" y="16" width="12" height="12" rx="2" fill="rgb(27 71 33)" />
  <rect x="170" y="30" width="12" height="12" rx="2" fill="rgb(28 72 33)" />
  <rect x="170" y="44" width="12" height="12" rx="2" fill="rgb(29 75 35)" />
  <rect x="170" y="58" width="12" height="12" rx="2" fill="rgb(37 93 42)" />
  <rect x="170" y="72" width="12" height="12" rx="2" fill="rgb(38 94 43)" />
  <rect x="170" y="86" width="12" height="12" rx="2" fill="rgb(37 93 42)" />
  <rect x="184" y="2" width="12" height="12" rx="2" fill="rgb(36 90 41)" />
  <rect x="184" y="16" width="12" height="12" rx="2" fill="rgb(35 89 41)" />
  <rect x="184" y="30" width="12" height="12" rx="2" fill="rgb(34 87 40)" />
  <rect x="184" y="44" width="12" height="12" rx="2" fill="rgb(33 83 38)" />
  <rect x="184" y="58" width="12" height="12" rx="2" fill="rgb(32 81 37)" />
  <rect x="184" y="72" width="12" height="12" rx="2" fill="rgb(34 87 40)" />
  <rect x="184" y="86" width="12" height="12" rx="2" fill="rgb(35 88 40)" />
  <rect x="198" y="2" width="12" height="12" rx="2" fill="rgb(33 83 38)" />
  <rect x="198" y="16" width="12" height="12" rx="2" fill="rgb(31 80 37)" />
  <rect x="198" y="30" width="12" height="12" rx="2" fill="rgb(31 79 36)" />
  <rect x="198" y="44" width="12" height="12" rx="2" fill="rgb(32 81 37)" />
  <rect x="198" y="58" width="12" height="12" rx="2" fill="rgb(31 80 37)" />
  <rect x="198" y="72" width="12" height="12" rx="2" fill="rgb(42 105 47)" />
  <rect x="198" y="86" width="12" height="12" rx="2" fill="rgb(33 65 43)" />
  <rect x="212" y="2" width="12" height="12" rx="2" fill="rgb(32 81 37)" />
  <rect x="212" y="16" width="12" height="12" rx="2" fill="rgb(30 77 35)" />
  <rect x="212" y="30" width="12" height="12" rx="2" fill="rgb(28 73 34)" />
  <rect x="212" y="44" width="12" height="12" rx="2" fill="rgb(29 76 35)" />
  <rect x="212" y="58" width="12" height="12" rx="2" fill="rgb(36 90 41)" />
  <rect x="212" y="72" width="12" height="12" rx="2" fill="rgb(40 100 45)" />
  <rect x="212" y="86" width="12" height="12" rx="2" fill="rgb(36 91 42)" />
  <rect x="226" y="2" width="12" height="12" rx="2" fill="rgb(36 90 41)" />
  <rect x="226" y="16" width="12" height="12" rx="2" fill="rgb(35 89 41)" />
  <rect x="226" y="30" width="12" height="12" rx="2" fill="rgb(34 87 40)" />
  <rect x="226" y="44" width="12" height="12" rx="2" fill="rgb(41 102 46)" />
  <rect x="226" y="58" width="12" height="12" rx="2" fill="rgb(39 98 45)" />
  <rect x="226" y="72" width="12" height="12" rx="2" fill="rgb(36 90 41)" />
  <rect x="226" y="86" width="12" height="12" rx="2" fill="rgb(35 88 40)" />
  <rect x="240" y="2" width="12" height="12" rx="2" fill="rgb(39 98 45)" />
  <rect x="240" y="16" width="12" height="12" rx="2" fill="rgb(38 95 43)" />
  <rect x="240" y="30" width="12" height="12" rx="2" fill="rgb(35 88 40)" />
  <rect x="240" y="44" width="12" height="12" rx="2" fill="rgb(34 86 39)" />
  <rect x="240" y="58" width="12" height="12" rx="2" fill="rgb(32 83 38)" />
  <rect x="240" y="72" width="12" height="12" rx="2" fill="rgb(33 85 39)" />
  <rect x="240" y="86" width="12" height="12" rx="2" fill="rgb(32 83 38)" />
  <rect x="254" y="2" width="12" height="12" rx="2" fill="rgb(32 82 38)" />
  <rect x="254" y="16" width="12" height="12" rx="2" fill="rgb(32 81 37)" />
  <rect x="254" y="30" width="12" height="12" rx="2" fill="rgb(31 80 37)" />
  <rect x="254" y="44" width="12" height="12" rx="2" fill="rgb(32 82 38)" />
  <rect x="254" y="58" width="12" height="12" rx="2" fill="rgb(29 76 35)" />
  <rect x="254" y="72" width="12" height="12" rx="2" fill="rgb(30 78 36)" />
  <rect x="254" y="86" width="12" height="12" rx="2" fill="rgb(29 76 35)" />
  <rect x="268" y="2" width="12" height="12" rx="2" fill="rgb(31 79 36)" />
  <rect x="268" y="16" width="12" height="12" rx="2" fill="rgb(31 80 37)" />
  <rect x="268" y="30" width="12" height="12" rx="2" fill="rgb(30 78 36)" />
  <rect x="268" y="44" width="12" height="12" rx="2" fill="rgb(32 82 38)" />
  <rect x="268" y="58" width="12" height="12" rx="2" fill="rgb(41 102 46)" />
  <rect x="268" y="72" width="12" height="12" rx="2" fill="rgb(35 88 40)" />
  <rect x="268" y="86" width="12" height="12" rx="2" fill="rgb(33 83 38)" />
  <rect x="282" y="2" width="12" height="12" rx="2" fill="rgb(32 83 38)" />
  <rect x="282" y="16" width="12" height="12" rx="2" fill="rgb(35 89 41)" />
  <rect x="282" y="30" width="12" height="12" rx="2" fill="rgb(32 83 38)" />
  <rect x="282" y="44" width="12" height="12" rx="2" fill="rgb(31 79 36)" />
  <rect x="282" y="58" width="12" height="12" rx="2" fill="rgb(31 80 37)" />
  <rect x="282" y="72" width="12" height="12" rx="2" fill="rgb(31 79 37)" />
  <rect x="282" y="86" width="12" height="12" rx="2" fill="rgb(30 77 36)" />
  <rect x="296" y="2" width="12" height="12" rx="2" fill="rgb(31 80 37)" />
  <rect x="296" y="16" width="12" height="12" rx="2" fill="rgb(42 103 47)" />
  <rect x="296" y="30" width="12" height="12" rx="2" fill="rgb(35 88 40)" />
  <rect x="296" y="44" width="12" height="12" rx="2" fill="rgb(34 86 40)" />
  <rect x="296" y="58" width="12" height="12" rx="2" fill="rgb(33 84 39)" />
  <rect x="296" y="72" width="12" height="12" rx="2" fill="rgb(31 79 36)" />
  <rect x="296" y="86" width="12" height="12" rx="2" fill="rgb(30 77 35)" />
  <rect x="310" y="2" width="12" height="12" rx="2" fill="rgb(30 78 36)" />
  <rect x="310" y="16" width="12" height="12" rx="2" fill="rgb(33 83 38)" />
  <rect x="310" y="30" width="12" height="12" rx="2" fill="rgb(33 84 39)" />
  <rect x="310" y="44" width="12" height="12" rx="2" fill="rgb(30 78 36)" />
  <rect x="310" y="58" width="12" height="12" rx="2" fill="rgb(30 78 36)" />
  <rect x="310" y="72" width="12" height="12" rx="2" fill="rgb(30 78 36)" />
  <rect x="310" y="86" width="12" height="12" rx="2" fill="rgb(33 84 39)" />
  <rect x="324" y="2" width="12" height="12" rx="2" fill="rgb(36 91 41)" />
  <rect x="324" y="16" width="12" height="12" rx="2" fill="rgb(37 93 42)" />
  <rect x="324" y="30" width="12" height="12" rx="2" fill="rgb(33 84 39)" />
  <rect x="324" y="44" width="12" height="12" rx="2" fill="rgb(33 83 38)" />
  <rect x="324" y="58" width="12" height="12" rx="2" fill="rgb(31 81 37)" />
  <rect x="324" y="72" width="12" height="12" rx="2" fill="rgb(31 79 36)" />
  <rect x="324" y="86" width="12" height="12" rx="2" fill="rgb(29 75 35)" />
  <rect x="338" y="2" width="12" height="12" rx="2" fill="rgb(35 89 41)" />
  <rect x="338" y="16" width="12" height="12" rx="2" fill="rgb(38 96 44)" />
  <rect x="338" y="30" width="12" height="12" rx="2" fill="rgb(35 88 40)" />
  <rect x="338" y="44" width="12" height="12" rx="2" fill="rgb(34 86 39)" />
  <rect x="338" y="58" width="12" height="12" rx="2" fill="rgb(33 84 39)" />
  <rect x="338" y="72" width="12" height="12" rx="2" fill="rgb(31 79 36)" />
  <rect x="338" y="86" width="12" height="12" rx="2" fill="rgb(29 74 34)" />
  <rect x="352" y="2" width="12" height="12" rx="2" fill="rgb(30 77 36)" />
  <rect x="352" y="16" width="12" height="12" rx="2" fill="rgb(30 78 36)" />
  <rect x="352" y="30" width="12" height="12" rx="2" fill="rgb(29 76 35)" />
  <rect x="352" y="44" width="12" height="12" rx="2" fill="rgb(29 74 34)" />
  <rect x="352" y="58" width="12" height="12" rx="2" fill="rgb(28 73 34)" />
  <rect x="352" y="72" width="12" height="12" rx="2" fill="rgb(27 72 33)" />
  <rect x="352" y="86" width="12" height="12" rx="2" fill="rgb(27 72 33)" />
  <rect x="366" y="2" width="12" height="12" rx="2" fill="rgb(28 72 33)" />
  <rect x="366" y="16" width="12" height="12" rx="2" fill="rgb(29 74 34)" />
  <rect x="366" y="30" width="12" height="12" rx="2" fill="rgb(27 72 33)" />
  <rect x="366" y="44" width="12" height="12" rx="2" fill="rgb(28 73 34)" />
  <rect x="366" y="58" width="12" height="12" rx="2" fill="rgb(27 71 33)" />
  <rect x="366" y="72" width="12" height="12" rx="2" fill="rgb(27 71 33)" />
  <rect x="366" y="86" width="12" height="12" rx="2" fill="rgb(29 69 36)" />
  <rect x="380" y="2" width="12" height="12" rx="2" fill="rgb(28 70 35)" />
  <rect x="380" y="16" width="12" height="12" rx="2" fill="rgb(27 71 34)" />
  <rect x="380" y="30" width="12" height="12" rx="2" fill="rgb(28 73 34)" />
  <rect x="380" y="44" width="12" height="12" rx="2" fill="rgb(29 69 37)" />
  <rect x="380" y="58" width="12" height="12" rx="2" fill="rgb(28 70 35)" />
  <rect x="380" y="72" width="12" height="12" rx="2" fill="rgb(29 69 37)" />
  <rect x="380" y="86" width="12" height="12" rx="2" fill="rgb(30 68 38)" />
  <rect x="394" y="2" width="12" height="12" rx="2" fill="rgb(31 80 37)" />
  <rect x="394" y="16" width="12" height="12" rx="2" fill="rgb(43 106 48)" />
  <rect x="394" y="30" width="12" height="12" rx="2" fill="rgb(44 108 49)" />
  <rect x="394" y="44" width="12" height="12" rx="2" fill="rgb(37 93 43)" />
  <rect x="394" y="58" width="12" height="12" rx="2" fill="rgb(34 86 40)" />
  <rect x="394" y="72" width="12" height="12" rx="2" fill="rgb(32 82 38)" />
  <rect x="394" y="86" width="12" height="12" rx="2" fill="rgb(29 75 35)" />
  <rect x="408" y="2" width="12" height="12" rx="2" fill="rgb(35 88 40)" />
  <rect x="408" y="16" width="12" height="12" rx="2" fill="rgb(40 99 45)" />
  <rect x="408" y="30" width="12" height="12" rx="2" fill="rgb(39 97 44)" />
  <rect x="408" y="44" width="12" height="12" rx="2" fill="rgb(36 90 41)" />
  <rect x="408" y="58" width="12" height="12" rx="2" fill="rgb(32 81 37)" />
  <rect x="408" y="72" width="12" height="12" rx="2" fill="rgb(30 78 36)" />
  <rect x="408" y="86" width="12" height="12" rx="2" fill="rgb(29 75 35)" />
  <rect x="422" y="2" width="12" height="12" rx="2" fill="rgb(30 77 36)" />
  <rect x="422" y="16" width="12" height="12" rx="2" fill="rgb(31 80 37)" />
  <rect x="422" y="30" width="12" height="12" rx="2" fill="rgb(29 75 35)" />
  <rect x="422" y="44" width="12" height="12" rx="2" fill="rgb(28 74 34)" />
  <rect x="422" y="58" width="12" height="12" rx="2" fill="rgb(28 73 34)" />
  <rect x="422" y="72" width="12" height="12" rx="2" fill="rgb(28 73 34)" />
  <rect x="422" y="86" width="12" height="12" rx="2" fill="rgb(36 61 48)" />
  <rect x="436" y="2" width="12" height="12" rx="2" fill="rgb(35 89 41)" />
  <rect x="436" y="16" width="12" height="12" rx="2" fill="rgb(28 70 34)" />
  <rect x="436" y="30" width="12" height="12" rx="2" fill="rgb(28 70 35)" />
  <rect x="436" y="44" width="12" height="12" rx="2" fill="rgb(28 70 34)" />
  <rect x="436" y="58" width="12" height="12" rx="2" fill="rgb(29 75 35)" />
  <rect x="436" y="72" width="12" height="12" rx="2" fill="rgb(37 94 43)" />
  <rect x="436" y="86" width="12" height="12" rx="2" fill="rgb(33 84 38)" />
  <rect x="450" y="2" width="12" height="12" rx="2" fill="rgb(34 85 39)" />
  <rect x="450" y="16" width="12" height="12" rx="2" fill="rgb(40 99 45)" />
  <rect x="450" y="30" width="12" height="12" rx="2" fill="rgb(35 88 40)" />
  <rect x="450" y="44" width="12" height="12" rx="2" fill="rgb(32 83 38)" />
  <rect x="450" y="58" width="12" height="12" rx="2" fill="rgb(31 79 37)" />
  <rect x="450" y="72" width="12" height="12" rx="2" fill="rgb(29 75 35)" />
  <rect x="450" y="86" width="12" height="12" rx="2" fill="rgb(29 75 35)" />
  <rect x="464" y="2" width="12" height="12" rx="2" fill="rgb(28 73 34)" />
  <rect x="464" y="16" width="12" height="12" rx="2" fill="rgb(29 75 35)" />
  <rect x="464" y="30" width="12" height="12" rx="2" fill="rgb(28 73 34)" />
  <rect x="464" y="44" width="12" height="12" rx="2" fill="rgb(28 74 34)" />
  <rect x="464" y="58" width="12" height="12" rx="2" fill="rgb(27 72 33)" />
  <rect x="464" y="72" width="12" height="12" rx="2" fill="rgb(27 72 33)" />
  <rect x="464" y="86" width="12" height="12" rx="2" fill="rgb(28 70 34)" />
  <rect x="478" y="2" width="12" height="12" rx="2" fill="rgb(30 78 36)" />
  <rect x="478" y="16" width="12" height="12" rx="2" fill="rgb(38 95 43)" />
  <rect x="478" y="30" width="12" height="12" rx="2" fill="rgb(33 85 39)" />
  <rect x="478" y="44" width="12" height="12" rx="2" fill="rgb(31 80 37)" />
  <rect x="478" y="58" width="12" height="12" rx="2" fill="rgb(30 78 36)" />
  <rect x="478" y="72" width="12" height="12" rx="2" fill="rgb(28 74 34)" />
  <rect x="478" y="86" width="12" height="12" rx="2" fill="rgb(28 74 34)" />
  <rect x="492" y="2" width="12" height="12" rx="2" fill="rgb(28 74 34)" />
  <rect x="492" y="16" width="12" height="12" rx="2" fill="rgb(28 73 34)" />
  <rect x="492" y="30" width="12" height="12" rx="2" fill="rgb(28 73 34)" />
  <rect x="492" y="44" width="12" height="12" rx="2" fill="rgb(29 75 35)" />
  <rect x="492" y="58" width="12" height="12" rx="2" fill="rgb(28 74 34)" />
  <rect x="492" y="72" width="12" height="12" rx="2" fill="rgb(28 73 34)" />
  <rect x="492" y="86" width="12" height="12" rx="2" fill="rgb(27 72 33)" />
  <rect x="506" y="2" width="12" height="12" rx="2" fill="rgb(34 86 40)" />
  <rect x="506" y="16" width="12" height="12" rx="2" fill="rgb(41 102 46)" />
  <rect x="506" y="30" width="12" height="12" rx="2" fill="rgb(35 88 40)" />
  <rect x="506" y="44" width="12" height="12" rx="2" fill="rgb(33 83 38)" />
  <rect x="506" y="58" width="12" height="12" rx="2" fill="rgb(30 78 36)" />
  <rect x="506" y="72" width="12" height="12" rx="2" fill="rgb(31 79 36)" />
  <rect x="506" y="86" width="12" height="12" rx="2" fill="rgb(28 73 34)" />
  <rect x="520" y="2" width="12" height="12" rx="2" fill="rgb(28 73 34)" />
  <rect x="520" y="16" width="12" height="12" rx="2" fill="rgb(29 76 35)" />
  <rect x="520" y="30" width="12" height="12" rx="2" fill="rgb(27 72 33)" />
  <rect x="520" y="44" width="12" height="12" rx="2" fill="rgb(27 71 34)" />
  <rect x="520" y="58" width="12" height="12" rx="2" fill="rgb(27 71 34)" />
  <rect x="520" y="72" width="12" height="12" rx="2" fill="rgb(28 70 34)" />
  <rect x="520" y="86" width="12" height="12" rx="2" fill="rgb(28 70 35)" />
  <rect x="534" y="2" width="12" height="12" rx="2" fill="rgb(28 70 35)" />
  <rect x="534" y="16" width="12" height="12" rx="2" fill="rgb(28 70 35)" />
  <rect x="534" y="30" width="12" height="12" rx="2" fill="rgb(28 70 34)" />
  <rect x="534" y="44" width="12" height="12" rx="2" fill="rgb(29 69 37)" />
  <rect x="534" y="58" width="12" height="12" rx="2" fill="rgb(27 71 34)" />
  <rect x="534" y="72" width="12" height="12" rx="2" fill="rgb(29 75 35)" />
  <rect x="534" y="86" width="12" height="12" rx="2" fill="rgb(30 77 36)" />
  <rect x="548" y="2" width="12" height="12" rx="2" fill="rgb(29 76 35)" />
  <rect x="548" y="16" width="12" height="12" rx="2" fill="rgb(29 74 35)" />
  <rect x="548" y="30" width="12" height="12" rx="2" fill="rgb(29 74 34)" />
  <rect x="548" y="44" width="12" height="12" rx="2" fill="rgb(27 72 33)" />
  <rect x="548" y="58" width="12" height="12" rx="2" fill="rgb(28 73 34)" />
  <rect x="548" y="72" width="12" height="12" rx="2" fill="rgb(30 77 36)" />
  <rect x="548" y="86" width="12" height="12" rx="2" fill="rgb(33 85 39)" />
  <rect x="562" y="2" width="12" height="12" rx="2" fill="rgb(41 102 46)" />
  <rect x="562" y="16" width="12" height="12" rx="2" fill="rgb(40 99 45)" />
  <rect x="562" y="30" width="12" height="12" rx="2" fill="rgb(37 93 42)" />
  <rect x="562" y="44" width="12" height="12" rx="2" fill="rgb(37 92 42)" />
  <rect x="562" y="58" width="12" height="12" rx="2" fill="rgb(34 87 40)" />
  <rect x="562" y="72" width="12" height="12" rx="2" fill="rgb(38 96 44)" />
  <rect x="562" y="86" width="12" height="12" rx="2" fill="rgb(41 102 46)" />
  <rect x="576" y="2" width="12" height="12" rx="2" fill="rgb(38 96 44)" />
  <rect x="576" y="16" width="12" height="12" rx="2" fill="rgb(38 95 43)" />
  <rect x="576" y="30" width="12" height="12" rx="2" fill="rgb(34 87 40)" />
  <rect x="576" y="44" width="12" height="12" rx="2" fill="rgb(33 84 39)" />
  <rect x="576" y="58" width="12" height="12" rx="2" fill="rgb(32 82 38)" />
  <rect x="576" y="72" width="12" height="12" rx="2" fill="rgb(34 85 39)" />
  <rect x="576" y="86" width="12" height="12" rx="2" fill="rgb(82 164 85)" />
  <rect x="590" y="2" width="12" height="12" rx="2" fill="rgb(37 93 43)" />
  <rect x="590" y="16" width="12" height="12" rx="2" fill="rgb(43 105 48)" />
  <rect x="590" y="30" width="12" height="12" rx="2" fill="rgb(38 95 43)" />
  <rect x="590" y="44" width="12" height="12" rx="2" fill="rgb(36 91 42)" />
  <rect x="590" y="58" width="12" height="12" rx="2" fill="rgb(34 86 40)" />
  <rect x="590" y="72" width="12" height="12" rx="2" fill="rgb(34 87 40)" />
  <rect x="590" y="86" width="12" height="12" rx="2" fill="rgb(35 88 40)" />
  <rect x="604" y="2" width="12" height="12" rx="2" fill="rgb(35 88 40)" />
  <rect x="604" y="16" width="12" height="12" rx="2" fill="rgb(33 84 39)" />
  <rect x="604" y="30" width="12" height="12" rx="2" fill="rgb(32 82 38)" />
  <rect x="604" y="44" width="12" height="12" rx="2" fill="rgb(31 80 37)" />
  <rect x="604" y="58" width="12" height="12" rx="2" fill="rgb(32 81 37)" />
  <rect x="604" y="72" width="12" height="12" rx="2" fill="rgb(32 83 38)" />
  <rect x="604" y="86" width="12" height="12" rx="2" fill="rgb(34 86 39)" />
  <rect x="618" y="2" width="12" height="12" rx="2" fill="rgb(32 83 38)" />
  <rect x="618" y="16" width="12" height="12" rx="2" fill="rgb(32 81 37)" />
  <rect x="618" y="30" width="12" height="12" rx="2" fill="rgb(30 78 36)" />
  <rect x="618" y="44" width="12" height="12" rx="2" fill="rgb(32 82 38)" />
  <rect x="618" y="58" width="12" height="12" rx="2" fill="rgb(30 77 36)" />
  <rect x="618" y="72" width="12" height="12" rx="2" fill="rgb(31 79 36)" />
  <rect x="618" y="86" width="12" height="12" rx="2" fill="rgb(30 78 36)" />
  <rect x="632" y="2" width="12" height="12" rx="2" fill="rgb(33 85 39)" />
  <rect x="632" y="16" width="12" height="12" rx="2" fill="rgb(27 71 34)" />
  <rect x="632" y="30" width="12" height="12" rx="2" fill="rgb(29 74 34)" />
  <rect x="632" y="44" width="12" height="12" rx="2" fill="rgb(29 75 35)" />
  <rect x="632" y="58" width="12" height="12" rx="2" fill="rgb(29 75 35)" />
  <rect x="632" y="72" width="12" height="12" rx="2" fill="rgb(31 79 37)" />
  <rect x="632" y="86" width="12" height="12" rx="2" fill="rgb(31 79 36)" />
  <rect x="646" y="2" width="12" height="12" rx="2" fill="rgb(30 77 35)" />
  <rect x="646" y="16" width="12" height="12" rx="2" fill="rgb(30 77 36)" />
  <rect x="646" y="30" width="12" height="12" rx="2" fill="rgb(29 75 35)" />
  <rect x="646" y="44" width="12" height="12" rx="2" fill="rgb(30 77 36)" />
  <rect x="646" y="58" width="12" height="12" rx="2" fill="rgb(31 79 36)" />
  <rect x="646" y="72" width="12" height="12" rx="2" fill="rgb(33 85 39)" />
  <rect x="646" y="86" width="12" height="12" rx="2" fill="rgb(31 80 37)" />
  <rect x="660" y="2" width="12" height="12" rx="2" fill="rgb(34 87 40)" />
  <rect x="660" y="16" width="12" height="12" rx="2" fill="rgb(35 89 41)" />
  <rect x="660" y="30" width="12" height="12" rx="2" fill="rgb(33 84 39)" />
  <rect x="660" y="44" width="12" height="12" rx="2" fill="rgb(31 80 37)" />
  <rect x="660" y="58" width="12" height="12" rx="2" fill="rgb(31 81 37)" />
  <rect x="660" y="72" width="12" height="12" rx="2" fill="rgb(33 85 39)" />
  <rect x="660" y="86" width="12" height="12" rx="2" fill="rgb(33 84 39)" />
  <rect x="674" y="2" width="12" height="12" rx="2" fill="rgb(33 84 39)" />
  <rect x="674" y="16" width="12" height="12" rx="2" fill="rgb(35 88 40)" />
  <rect x="674" y="30" width="12" height="12" rx="2" fill="rgb(32 83 38)" />
  <rect x="674" y="44" width="12" height="12" rx="2" fill="rgb(32 82 38)" />
  <rect x="674" y="58" width="12" height="12" rx="2" fill="rgb(33 83 38)" />
  <rect x="674" y="72" width="12" height="12" rx="2" fill="rgb(33 84 39)" />
  <rect x="674" y="86" width="12" height="12" rx="2" fill="rgb(34 87 40)" />
  <rect x="688" y="2" width="12" height="12" rx="2" fill="rgb(34 87 40)" />
  <rect x="688" y="16" width="12" height="12" rx="2" fill="#2A313C" />
  <rect x="688" y="30" width="12" height="12" rx="2" fill="rgb(33 84 39)" />
  <rect x="688" y="44" width="12" height="12" rx="2" fill="rgb(32 82 38)" />
  <rect x="688" y="58" width="12" height="12" rx="2" fill="rgb(35 89 41)" />
  <rect x="688" y="72" width="12" height="12" rx="2" fill="rgb(34 86 39)" />
  <rect x="688" y="86" width="12" height="12" rx="2" fill="rgb(34 87 40)" />
  <rect x="702" y="2" width="12" height="12" rx="2" fill="rgb(37 92 42)" />
  <rect x="702" y="16" width="12" height="12" rx="2" fill="rgb(37 92 42)" />
  <rect x="702" y="30" width="12" height="12" rx="2" fill="rgb(35 87 40)" />
  <rect x="702" y="44" width="12" height="12" rx="2" fill="rgb(32 83 38)" />
  <rect x="702" y="58" width="12" height="12" rx="2" fill="rgb(34 86 40)" />
  <rect x="702" y="72" width="12" height="12" rx="2" fill="rgb(35 89 41)" />
  <rect x="702" y="86" width="12" height="12" rx="2" fill="rgb(36 92 42)" />
  <rect x="716" y="2" width="12" height="12" rx="2" fill="rgb(37 92 42)" />
  <rect x="716" y="16" width="12" height="12" rx="2" fill="rgb(35 89 41)" />
  <rect x="716" y="30" width="12" height="12" rx="2" fill="rgb(35 88 40)" />
  <rect x="716" y="44" width="12" height="12" rx="2" fill="rgb(34 86 39)" />
  <rect x="716" y="58" width="12" height="12" rx="2" fill="rgb(34 87 40)" />
  <rect x="716" y="72" width="12" height="12" rx="2" fill="rgb(36 91 42)" />
  <rect x="716" y="86" width="12" height="12" rx="2" fill="rgb(37 93 43)" />
  <rect x="730" y="2" width="12" height="12" rx="2" fill="rgb(46 110 51)" />
  <rect x="730" y="16" width="12" height="12" rx="2" fill="rgb(56 126 60)" />
  <rect x="730" y="30" width="12" height="12" rx="2" fill="rgb(43 106 48)" />
  <rect x="730" y="44" width="12" height="12" rx="2" fill="rgb(41 102 46)" />
  <rect x="730" y="58" width="12" height="12" rx="2" fill="#2A313C" />
</svg>